<svg height="471pt" viewBox="0 -3 471.68366 471" width="471pt" xmlns="http://www.w3.org/2000/svg"><path d="m39.683594 232.34375c0 110.457031 89.542968 200 200 200v-400c-110.457032 0-200 89.542969-200 200zm0 0" fill="#bdfdff"/><path d="m239.683594 32.34375v400c110.457031 0 200-89.542969 200-200s-89.542969-200-200-200zm0 0" fill="#dafeff"/><path d="m239.683594.34375c-46.582032-.054688-92.089844 13.972656-130.558594 40.238281l-.183594.121094-37.257812-40.359375-16 120 112-16-36.710938-39.769531.550782-.390625c71.703124-46.167969 164.789062-41.789063 231.84375 10.902344 67.050781 52.6875 93.320312 142.101562 65.421874 222.6875-27.898437 80.582031-103.828124 134.613281-189.105468 134.570312-5.839844 0-11.601563-.320312-17.28125-.800781l-12.320313 30.878906c9.820313 1.25 19.703125 1.890625 29.601563 1.921875 128.128906 0 232-103.871094 232-232 0-128.132812-103.871094-232-232-232zm0 0" fill="#ff3051"/><g fill="#46f8ff"><path d="m19.761719 275.109375c-1.949219-10.113281-3.199219-20.347656-3.75-30.632813-.238281-4.417968-4.015625-7.804687-8.433594-7.566406-4.417969.238282-7.804687 4.011719-7.5664062 8.433594.5820312 11.011719 1.9179692 21.96875 4.0000002 32.796875.726562 3.757813 4.011719 6.472656 7.839843 6.480469.511719 0 1.023438-.046875 1.527344-.144532 2.089844-.390624 3.941406-1.597656 5.136719-3.355468 1.199219-1.757813 1.648437-3.921875 1.246094-6.011719zm0 0"/><path d="m55.492188 359.863281c-2.515626-3.636719-7.503907-4.542969-11.136719-2.023437-3.632813 2.515625-4.539063 7.5-2.023438 11.132812 6.285157 9.070313 13.183594 17.691406 20.65625 25.808594 2.988281 3.253906 8.050781 3.46875 11.304688.480469 3.253906-2.988281 3.46875-8.050781.480469-11.304688-6.972657-7.578125-13.414063-15.628906-19.28125-24.09375zm0 0"/><path d="m7.835938 220.902344c.222656.011718.441406.011718.664062 0 4.175781.015625 7.65625-3.183594 8-7.34375.839844-10.265625 2.398438-20.460938 4.65625-30.511719.96875-4.320313-1.75-8.605469-6.070312-9.574219-4.316407-.964844-8.601563 1.75-9.570313 6.070313-2.429687 10.78125-4.109375 21.714843-5.03125 32.726562-.175781 2.121094.503906 4.222657 1.882813 5.84375 1.378906 1.621094 3.347656 2.625 5.46875 2.789063zm0 0"/><path d="m122.285156 423.164062c-8.773437-5.40625-17.160156-11.414062-25.105468-17.972656-3.40625-2.816406-8.449219-2.335937-11.265626 1.070313-2.8125 3.40625-2.332031 8.449219 1.074219 11.265625 8.515625 7.019531 17.496094 13.453125 26.886719 19.253906 2.433594 1.632812 5.5625 1.800781 8.15625.445312 2.597656-1.355468 4.246094-4.019531 4.296875-6.945312.050781-2.929688-1.5-5.652344-4.042969-7.097656zm0 0"/><path d="m19.636719 158.164062c.898437.339844 1.851562.511719 2.816406.515626 3.332031 0 6.3125-2.066407 7.488281-5.1875 2.699219-7.207032 5.777344-14.265626 9.222656-21.148438 1.933594-3.949219.324219-8.714844-3.609374-10.679688-3.929688-1.960937-8.707032-.390624-10.703126 3.527344-3.683593 7.382813-6.988281 14.949219-9.894531 22.671875-1.554687 4.136719.539063 8.75 4.679688 10.300781zm0 0"/><path d="m27.683594 304.925781c-1.429688-4.183593-5.980469-6.410156-10.164063-4.980469-4.183593 1.433594-6.410156 5.984376-4.980469 10.164063 3.589844 10.441406 7.890626 20.621094 12.871094 30.472656 2.050782 3.835938 6.789063 5.332031 10.671875 3.367188 3.878907-1.960938 5.480469-6.667969 3.601563-10.589844-4.652344-9.191406-8.660156-18.691406-12-28.433594zm0 0"/><path d="m178.683594 447.941406c-9.914063-2.789062-19.621094-6.265625-29.054688-10.398437-4.015625-1.609375-8.578125.261719-10.308594 4.222656-1.730468 3.960937 0 8.582031 3.90625 10.433594 10.117188 4.441406 20.523438 8.183593 31.152344 11.199219.710938.199218 1.441406.300781 2.175782.304687 4 .003906 7.390624-2.945313 7.9375-6.90625.546874-3.964844-1.917969-7.722656-5.769532-8.800781zm0 0"/><path d="m45.585938 299.605469c1.683593 4.085937 6.359374 6.039062 10.445312 4.355469 4.085938-1.679688 6.039062-6.355469 4.355469-10.441407-3.90625-9.445312-7-19.207031-9.238281-29.175781-.957032-4.320312-5.230469-7.042969-9.546876-6.085938-4.320312.957032-7.042968 5.230469-6.085937 9.546876 2.445313 10.867187 5.816406 21.507812 10.070313 31.800781zm0 0"/><path d="m47.035156 178.996094c.777344.246094 1.585938.367187 2.402344.371094 3.492188 0 6.582031-2.269532 7.628906-5.601563 3.058594-9.773437 6.890625-19.289063 11.464844-28.457031 1.988281-3.945313.398438-8.757813-3.546875-10.746094-3.949219-1.988281-8.761719-.398438-10.75 3.546875-4.957031 9.929687-9.113281 20.242187-12.429687 30.832031-.644532 2.027344-.457032 4.226563.527343 6.113282.980469 1.890624 2.675781 3.308593 4.703125 3.941406zm0 0"/><path d="m47.683594 233.980469v-1.535157c.128906-9.621093.929687-19.222656 2.398437-28.734374.492188-2.855469-.597656-5.75-2.847656-7.570313s-5.308594-2.285156-8-1.214844c-2.6875 1.074219-4.585937 3.515625-4.964844 6.382813-1.582031 10.234375-2.445312 20.566406-2.585937 30.921875v2.128906c.007812 2.101563.855468 4.113281 2.359375 5.585937 1.507812 1.46875 3.539062 2.273438 5.640625 2.230469 4.457031-.089843 8.019531-3.738281 8-8.195312zm0 0"/><path d="m136.355469 389.023438c-8.351563-6.023438-16.277344-12.621094-23.710938-19.746094-3.207031-2.929688-8.171875-2.765625-11.175781.371094-3.003906 3.140624-2.957031 8.101562.109375 11.179687 7.972656 7.648437 16.472656 14.726563 25.433594 21.1875 3.585937 2.578125 8.585937 1.761719 11.167969-1.824219 2.582031-3.589844 1.761718-8.589844-1.824219-11.167968zm0 0"/><path d="m190.882812 416.726562c-9.746093-3.078124-19.214843-6.96875-28.3125-11.632812-3.933593-2.011719-8.753906-.449219-10.761718 3.484375-2.011719 3.933594-.453125 8.753906 3.484375 10.765625 9.894531 5.066406 20.199219 9.296875 30.796875 12.644531 4.21875 1.328125 8.707031-1.015625 10.035156-5.230469 1.324219-4.214843-1.019531-8.707031-5.234375-10.03125zm0 0"/><path d="m90.539062 357.6875c3.453126-2.753906 4.023438-7.785156 1.273438-11.242188-6.4375-8.058593-12.316406-16.542968-17.601562-25.398437-1.386719-2.601563-4.09375-4.226563-7.042969-4.230469-2.945313-.007812-5.660157 1.609375-7.054688 4.207032-1.398437 2.59375-1.257812 5.75.371094 8.207031 5.652344 9.480469 11.941406 18.566406 18.824219 27.199219 2.753906 3.457031 7.792968 4.023437 11.246094 1.265624zm0 0"/></g><path d="m239.683594 80.34375c-4.417969 0-8 3.578125-8 8v144c0 2.121094.84375 4.152344 2.34375 5.652344l80 80c3.140625 3.035156 8.128906 2.992187 11.214844-.09375 3.085937-3.085938 3.128906-8.078125.097656-11.214844l-77.65625-77.65625v-140.6875c0-4.421875-3.582032-8-8-8zm0 0" fill="#ffcd00"/></svg>