<svg height="460.79092pt" viewBox="0 0 460.79092 460.79092" width="460.79092pt" xmlns="http://www.w3.org/2000/svg"><path d="m380.800781 79.992188 56.558594-56.5625c-31.242187-31.238282-81.894531-31.238282-113.136719 0zm0 0" fill="#d1d3d4"/><path d="m380.800781 79.992188 56.558594 56.558593c31.242187-31.242187 31.242187-81.894531 0-113.136719zm0 0" fill="#d6d8d9"/><path d="m38.640625 309.035156 245.597656-245.597656 56.5625 56.5625-245.597656 245.597656zm0 0" fill="#0b7"/><path d="m95.203125 365.585938 245.597656-245.597657 56.558594 56.558594-245.597656 245.597656zm0 0" fill="#1cc386"/><path d="m284.242188 63.425781 39.992187-39.992187 56.5625 56.5625-39.992187 39.992187zm0 0" fill="#ff9811"/><path d="m340.796875 119.984375 39.992187-39.992187 56.558594 56.558593-39.992187 39.992188zm0 0" fill="#ffaf46"/><path d="m380.796875 80 .003906-.007812 56.558594 56.558593-.003906.003907zm0 0" fill="#9bc9ff"/><path d="m324.234375 23.4375.003906-.003906 56.5625 56.5625-.003906.003906zm0 0" fill="#9bc9ff"/><path d="m95.199219 365.589844-56.558594-56.558594-23.441406 92.078125c10.609375 2.972656 20.277343 8.625 28.066406 16.417969zm0 0" fill="#c49a6c"/><path d="m43.265625 417.527344c7.792969 7.789062 13.445313 17.453125 16.414063 28.0625l92.082031-23.4375-56.5625-56.5625zm0 0" fill="#d1b08d"/><path d="m15.199219 401.109375-15.199219 59.679687 43.265625-43.261718c-7.789063-7.792969-17.457031-13.445313-28.066406-16.417969zm0 0" fill="#414042"/><path d="m0 460.789062 59.679688-15.199218c-2.96875-10.609375-8.621094-20.273438-16.414063-28.0625zm0 0" fill="#565557"/></svg>