<svg height="466pt" viewBox="-48 0 466 466.70175" width="466pt" xmlns="http://www.w3.org/2000/svg"><path d="m88.925781 65.15625c2.066407-.65625 4.128907-1.300781 6.242188-1.855469 8.523437-2.265625 17.257812-3.652343 26.0625-4.136719-8.792969.460938-17.515625 1.839844-26.023438 4.105469-2.121093.566407-4.207031 1.222657-6.28125 1.886719zm0 0" fill="#9bc9ff"/><path d="m88.925781 65.15625c2.074219-.664062 4.152344-1.320312 6.28125-1.886719 8.507813-2.265625 17.230469-3.644531 26.023438-4.105469 1.984375-.117187 3.960937-.230468 5.9375-.261718l-9.335938-34.824219c-2.851562-11.164063-11.484375-19.929687-22.601562-22.957031-11.117188-3.023438-23 .160156-31.117188 8.335937-8.113281 8.179688-11.207031 20.085938-8.097656 31.179688l9.3125 34.746093c7.492187-4.210937 15.402344-7.636718 23.597656-10.226562zm0 0" fill="#ff9811"/><path d="m127.167969 58.925781c-1.976563 0-3.953125.144531-5.9375.265625 1.984375-.136718 3.96875-.25 5.9375-.265625zm0 0" fill="#9bc9ff"/><path d="m88.925781 65.15625c-8.195312 2.589844-16.105469 6.015625-23.597656 10.226562 7.5-4.199218 15.40625-7.625 23.597656-10.226562zm0 0" fill="#9bc9ff"/><path d="m202.847656 465.0625c25.597656-6.835938 40.8125-33.117188 34-58.722656l-92.800781 24.800781c6.871094 25.605469 33.195313 40.792969 58.800781 33.921875zm0 0" fill="#ff5023"/><path d="m186.6875 305.542969c29.816406-52.171875 49.914062-109.324219 59.320312-168.671875-20.097656-47.71875-67.066406-78.53125-118.839843-77.96875-1.96875 0-3.953125.128906-5.9375.238281-8.804688.484375-17.539063 1.871094-26.0625 4.136719-2.113281.550781-4.175781 1.199218-6.242188 1.855468-8.191406 2.609376-16.09375 6.046876-23.589843 10.257813-50.78125 28.789063-75.707032 88.242187-60.640626 144.640625l20.800782 77.757812c4.355468 16.230469 6.558594 32.957032 6.558594 49.761719 0 33.671875-8.855469 66.75-25.679688 95.917969-2.820312 4.863281-2.433594 10.949219.980469 15.414062 3.417969 4.46875 9.1875 6.433594 14.621093 4.988282l32.558594-8.730469c53.714844-40.414063 98.671875-91.308594 132.152344-149.597656zm0 0" fill="#ffd839"/><path d="m362.289062 348.101562c-44.121093-25.441406-76.320312-67.371093-89.523437-116.558593l-20.796875-77.761719c-1.589844-5.769531-3.582031-11.421875-5.960938-16.910156-9.40625 59.347656-29.503906 116.5-59.320312 168.671875-33.480469 58.289062-78.4375 109.183593-132.152344 149.597656l89.511719-24 92.800781-24.800781 122.078125-32.71875c6.152344-1.632813 10.40625-7.238282 10.320313-13.597656.019531-4.945313-2.644532-9.507813-6.957032-11.921876zm0 0" fill="#ffcd00"/></svg>