<svg height="464pt" viewBox="0 -41 464 464" width="464pt" xmlns="http://www.w3.org/2000/svg"><path d="m168 64c0 35.347656 28.652344 64 64 64v-128c-35.347656 0-64 28.652344-64 64zm0 0" fill="#2b3990"/><path d="m296 64c0-35.347656-28.652344-64-64-64v128c35.347656 0 64-28.652344 64-64zm0 0" fill="#434f9c"/><path d="m168 128c-44.15625.0625-79.9375 35.84375-80 80v101.601562c.011719 6.328126 3.738281 12.058594 9.519531 14.636719l121.519531 54c4.078126 1.824219 8.496094 2.761719 12.960938 2.761719v-189zm0 0" fill="#2b3990"/><path d="m338.320312 140.160156c-12.679687-7.957031-27.351562-12.171875-42.320312-12.160156l-64 64v189c4.464844 0 8.882812-.941406 12.960938-2.761719l121.519531-54c5.78125-2.578125 9.507812-8.308593 9.519531-14.636719v-101.601562c.03125-27.613281-14.222656-53.273438-37.679688-67.839844zm0 0" fill="#434f9c"/><path d="m96 72c0-17.671875-14.328125-32-32-32v64c17.671875 0 32-14.328125 32-32zm0 0" fill="#3484c3"/><path d="m32 72c0 17.671875 14.328125 32 32 32v-64c-17.671875 0-32 14.328125-32 32zm0 0" fill="#1b75bc"/><path d="m32 120c-17.671875 0-32 14.328125-32 32v71.121094c.0234375 5.519531 2.859375 10.644531 7.519531 13.597656l48.878907 30.5625c2.304687 1.386719 4.914062 2.183594 7.601562 2.320312v-125.601562zm0 0" fill="#1b75bc"/><path d="m96 120-32 24v125.601562c2.761719.171876 5.519531-.382812 8-1.601562l16-8v-52c-.03125-27.613281 14.222656-53.273438 37.679688-67.839844-4.832032-12.164062-16.589844-20.152344-29.679688-20.160156zm0 0" fill="#3484c3"/><path d="m432 72c0-17.671875-14.328125-32-32-32v64c17.671875 0 32-14.328125 32-32zm0 0" fill="#3484c3"/><path d="m368 72c0 17.671875 14.328125 32 32 32v-64c-17.671875 0-32 14.328125-32 32zm0 0" fill="#1b75bc"/><path d="m368 120c-13.089844.007812-24.847656 7.996094-29.679688 20.160156 23.457032 14.566406 37.710938 40.226563 37.679688 67.839844v44l16.878906 8.398438c2.210938 1.105468 4.648438 1.683593 7.121094 1.679687v-118.078125zm0 0" fill="#1b75bc"/><path d="m432 120-32 24v118.078125c2.472656.003906 4.910156-.574219 7.121094-1.679687l48-24c5.4375-2.699219 8.875-8.246094 8.878906-14.320313v-70.078125c0-17.671875-14.328125-32-32-32zm0 0" fill="#3484c3"/></svg>