<?xml version="1.0" encoding="iso-8859-1"?>
<!-- Generator: Adobe Illustrator 19.0.0, SVG Export Plug-In . SVG Version: 6.00 Build 0)  -->
<svg version="1.1" id="Layer_1" xmlns="http://www.w3.org/2000/svg" xmlns:xlink="http://www.w3.org/1999/xlink" x="0px" y="0px"
	 viewBox="0 0 512.003 512.003" style="enable-background:new 0 0 512.003 512.003;" xml:space="preserve">
<circle style="fill:#D35933;" cx="256.002" cy="256" r="256"/>
<path style="fill:#B54324;" d="M509.245,293.605L312.648,97.008l-73.311,61.88l-40.3,36.743l37.2,37.2h-95.923l-12.828,12.828v36.49
	H109.47l-32.775,89.036l137.382,137.381c13.645,2.248,27.645,3.437,41.925,3.437C384.61,512,491.055,417.159,509.245,293.605z"/>
<path style="fill:#386895;" d="M364.084,226.954H262.035v-56.287h-12.067v56.287h-102.05c-13.19,0-23.923,10.733-23.923,23.924
	v62.011c0,3.332,2.701,6.034,6.034,6.034s6.034-2.701,6.034-6.034v-62.011c0-6.539,5.318-11.857,11.855-11.857h102.048v45.423
	h12.067v-45.423h102.048c6.537,0,11.855,5.318,11.855,11.857v62.011c0,3.332,2.701,6.034,6.034,6.034s6.034-2.701,6.034-6.034
	v-62.011C388.006,237.687,377.273,226.954,364.084,226.954z"/>
<path style="fill:#273B7A;" d="M364.084,226.954H262.035v-56.287h-6.608v113.778h6.608v-45.423h102.048
	c6.537,0,11.855,5.318,11.855,11.857v62.011c0,3.332,2.701,6.034,6.034,6.034s6.034-2.701,6.034-6.034v-62.011
	C388.006,237.687,377.273,226.954,364.084,226.954z"/>
<path style="fill:#FFFFFF;" d="M306.333,199.111H205.669c-4.465,0-8.083-3.618-8.083-8.083v-88.981c0-4.465,3.618-8.083,8.083-8.083
	h100.664c4.465,0,8.083,3.618,8.083,8.083v88.981C314.416,195.493,310.798,199.111,306.333,199.111z"/>
<path style="fill:#D0D1D3;" d="M306.333,93.963h-50.907v105.148h50.907c4.465,0,8.083-3.618,8.083-8.083v-88.981
	C314.416,97.582,310.798,93.963,306.333,93.963z"/>
<path style="fill:#386895;" d="M314.416,102.047c0-4.465-3.618-8.083-8.083-8.083H205.669c-4.465,0-8.083,3.618-8.083,8.083v8.521
	h116.831V102.047z"/>
<path style="fill:#273B7A;" d="M314.416,102.047c0-4.465-3.618-8.083-8.083-8.083h-50.907v16.605h58.99L314.416,102.047
	L314.416,102.047z"/>
<g>
	<path style="fill:#D0D1D3;" d="M197.672,192.148c0.546,3.932,3.913,6.963,7.997,6.963h100.664c4.084,0,7.451-3.031,7.997-6.963
		H197.672z"/>
	<path style="fill:#D0D1D3;" d="M304.149,106.53h-96.297c-1.662,0-3.01-1.348-3.01-3.01l0,0c0-1.662,1.348-3.01,3.01-3.01h96.297
		c1.662,0,3.01,1.348,3.01,3.01l0,0C307.159,105.184,305.812,106.53,304.149,106.53z"/>
</g>
<path style="fill:#FFFFFF;" d="M301.975,372.979h-91.948c-4.079,0-7.383-3.306-7.383-7.384v-81.277c0-4.079,3.306-7.384,7.383-7.384
	h91.948c4.079,0,7.383,3.306,7.383,7.384v81.277C309.358,369.673,306.054,372.979,301.975,372.979z"/>
<path style="fill:#D0D1D3;" d="M301.975,276.933h-46.549v96.044h46.549c4.079,0,7.383-3.306,7.383-7.384v-81.277
	C309.358,280.24,306.054,276.933,301.975,276.933z"/>
<path style="fill:#FFC61B;" d="M309.358,284.317c0-4.079-3.306-7.384-7.383-7.384h-91.948c-4.079,0-7.383,3.306-7.383,7.384v7.783
	H309.36v-7.783H309.358z"/>
<path style="fill:#EAA22F;" d="M309.358,284.319c0-4.077-3.306-7.384-7.383-7.384h-46.549v15.167h53.932V284.319z"/>
<path style="fill:#D0D1D3;" d="M202.723,366.618c0.5,3.593,3.575,6.359,7.304,6.359h91.948c3.729,0,6.804-2.769,7.304-6.359H202.723
	z"/>
<g>
	<path style="fill:#FFFFFF;" d="M299.98,288.415H212.02c-1.519,0-2.748-1.231-2.748-2.748l0,0c0-1.519,1.231-2.748,2.748-2.748
		h87.961c1.519,0,2.748,1.231,2.748,2.748l0,0C302.73,287.184,301.499,288.415,299.98,288.415z"/>
	<path style="fill:#FFFFFF;" d="M430.489,372.979h-91.948c-4.079,0-7.384-3.306-7.384-7.384v-81.277
		c0-4.079,3.306-7.384,7.384-7.384h91.948c4.079,0,7.383,3.306,7.383,7.384v81.277C437.872,369.673,434.567,372.979,430.489,372.979
		z"/>
</g>
<path style="fill:#D0D1D3;" d="M430.489,276.933h-46.201v96.044h46.201c4.079,0,7.383-3.306,7.383-7.384v-81.277
	C437.872,280.24,434.567,276.933,430.489,276.933z"/>
<path style="fill:#FFC61B;" d="M437.872,284.317c0-4.079-3.306-7.384-7.383-7.384h-91.948c-4.079,0-7.384,3.306-7.384,7.384v7.783
	h106.717v-7.783H437.872z"/>
<path style="fill:#EAA22F;" d="M437.872,284.319c0-4.077-3.306-7.384-7.383-7.384h-46.201v15.167h53.584V284.319z"/>
<path style="fill:#D0D1D3;" d="M331.236,366.618c0.5,3.593,3.575,6.359,7.304,6.359h91.948c3.729,0,6.804-2.769,7.304-6.359H331.236
	z"/>
<g>
	<path style="fill:#FFFFFF;" d="M428.494,288.415h-87.961c-1.519,0-2.748-1.231-2.748-2.748l0,0c0-1.519,1.231-2.748,2.748-2.748
		h87.961c1.519,0,2.748,1.231,2.748,2.748l0,0C431.244,287.184,430.013,288.415,428.494,288.415z"/>
	<path style="fill:#FFFFFF;" d="M173.461,372.979H81.513c-4.079,0-7.383-3.306-7.383-7.384v-81.277c0-4.079,3.306-7.384,7.383-7.384
		h91.948c4.079,0,7.383,3.306,7.383,7.384v81.277C180.845,369.673,177.54,372.979,173.461,372.979z"/>
</g>
<path style="fill:#D0D1D3;" d="M173.461,276.933H129.15v96.044h44.311c4.079,0,7.383-3.306,7.383-7.384v-81.277
	C180.845,280.24,177.54,276.933,173.461,276.933z"/>
<path style="fill:#FFC61B;" d="M180.845,284.317c0-4.079-3.306-7.384-7.383-7.384H81.513c-4.079,0-7.383,3.306-7.383,7.384v7.783
	h106.717v-7.783H180.845z"/>
<path style="fill:#EAA22F;" d="M180.845,284.319c0-4.077-3.306-7.384-7.383-7.384H129.15v15.167h51.695V284.319z"/>
<path style="fill:#D0D1D3;" d="M74.207,366.618c0.5,3.593,3.575,6.359,7.304,6.359h91.948c3.729,0,6.804-2.769,7.304-6.359H74.207z"
	/>
<path style="fill:#FFFFFF;" d="M171.467,288.415H83.506c-1.519,0-2.748-1.231-2.748-2.748l0,0c0-1.519,1.231-2.748,2.748-2.748
	h87.961c1.519,0,2.748,1.231,2.748,2.748l0,0C174.216,287.184,172.985,288.415,171.467,288.415z"/>
<g>
	<path style="fill:#A6A8AA;" d="M255.426,192.148v6.963h50.907c4.084,0,7.451-3.031,7.997-6.963H255.426z"/>
	<path style="fill:#A6A8AA;" d="M304.149,100.512h-48.723v6.018h48.723c1.662,0,3.01-1.348,3.01-3.01
		C307.159,101.86,305.812,100.512,304.149,100.512z"/>
	<path style="fill:#A6A8AA;" d="M255.426,366.618v6.359h46.549c3.729,0,6.804-2.769,7.304-6.359H255.426z"/>
</g>
<path style="fill:#D0D1D3;" d="M299.98,282.917h-44.554v5.498h44.554c1.519,0,2.748-1.231,2.748-2.75
	C302.73,284.148,301.499,282.917,299.98,282.917z"/>
<path style="fill:#A6A8AA;" d="M384.288,366.618v6.359h46.201c3.731,0,6.804-2.769,7.304-6.359H384.288z"/>
<path style="fill:#D0D1D3;" d="M428.494,282.917h-44.206v5.498h44.206c1.519,0,2.748-1.231,2.748-2.75
	C431.244,284.148,430.013,282.917,428.494,282.917z"/>
<path style="fill:#A6A8AA;" d="M129.15,366.618v6.359h44.311c3.729,0,6.804-2.769,7.304-6.359H129.15z"/>
<path style="fill:#D0D1D3;" d="M171.467,282.917H129.15v5.498h42.317c1.519,0,2.748-1.231,2.748-2.75
	C174.216,284.148,172.985,282.917,171.467,282.917z"/>
<g>
</g>
<g>
</g>
<g>
</g>
<g>
</g>
<g>
</g>
<g>
</g>
<g>
</g>
<g>
</g>
<g>
</g>
<g>
</g>
<g>
</g>
<g>
</g>
<g>
</g>
<g>
</g>
<g>
</g>
</svg>
